<svg width="340" height="320" viewBox="0 0 340 320" fill="none" xmlns="http://www.w3.org/2000/svg">
<g opacity="0.15">
<path fill-rule="evenodd" clip-rule="evenodd" d="M308.598 126.367C308.297 126.821 307.688 126.944 307.235 126.643C301.195 122.638 295.461 118.836 290.007 115.22C229.905 75.3688 203.883 58.1147 179.185 40.4655C178.743 40.1496 178.636 39.5351 178.945 39.0891C179.255 38.6431 179.865 38.5326 180.312 38.8415C204.695 55.6923 229.146 71.9931 254.089 88.6212C271.867 100.473 289.895 112.492 308.326 124.995C308.777 125.3 308.898 125.914 308.598 126.367ZM307.257 121.233C306.956 121.685 306.348 121.806 305.896 121.506C281.98 105.611 256.763 88.574 230.864 71.0761C215.048 60.3908 198.977 49.5337 182.794 38.6598C182.348 38.3604 182.221 37.7589 182.506 37.3046C182.792 36.8503 183.386 36.709 183.846 36.9863C192.312 42.0935 200.547 47.2935 209.531 53.1767C201.49 47.5557 193.912 42.1884 186.36 36.8241C186.359 36.8238 186.359 36.8235 186.358 36.8232C185.913 36.507 185.806 35.8887 186.119 35.4418C186.432 34.9949 187.047 34.8885 187.492 35.204C226.502 62.8204 265.399 88.8417 305.63 114.709C306.089 115.004 306.225 115.616 305.933 116.077C305.642 116.538 305.034 116.674 304.574 116.38C288.272 105.974 274.154 96.8084 261.615 88.5348C266.524 91.9224 271.725 95.5148 277.26 99.3385C286.23 105.534 296.078 112.338 306.994 119.862C307.441 120.17 307.559 120.782 307.257 121.233ZM304.585 110.956C304.289 111.409 303.685 111.536 303.23 111.243C286.908 100.71 271.732 90.3683 257.151 80.3183C253.475 77.7844 249.836 75.269 246.227 72.7736C245.631 72.3618 245.036 71.9506 244.442 71.5399C225.966 58.7673 208.221 46.5334 189.989 35.0315L190.511 34.1921L191.079 33.383C208.615 45.8406 226.714 57.8118 247.524 71.5759C251.014 73.8846 254.581 76.2437 258.234 78.664C272.818 88.7161 287.983 99.05 304.292 109.575L303.761 110.409L303.209 111.229C286.252 99.6565 271.081 89.5476 257.151 80.3183M258.234 78.664C272.153 87.8857 287.326 97.9958 304.314 109.589C304.761 109.894 304.882 110.503 304.585 110.956M303.253 105.81C302.959 106.269 302.351 106.401 301.893 106.106C277.334 90.2759 248.785 70.8234 218.437 50.1444C209.725 44.2076 200.863 38.1698 191.906 32.0875C191.455 31.7814 191.334 31.1672 191.636 30.7138C191.937 30.2604 192.547 30.1385 193 30.4411C204.314 37.9987 215.262 45.4868 226.954 53.4832C247.821 67.7553 271.054 83.6463 302.958 104.44C303.415 104.738 303.547 105.351 303.253 105.81ZM301.891 100.709C301.58 101.154 300.969 101.262 300.523 100.951C283.283 88.9322 265.806 77.3833 248.332 65.8368L247.97 65.5974C230.379 53.9733 212.794 42.3485 195.481 30.2582C195.037 29.9487 194.922 29.3396 195.222 28.8903C195.522 28.4411 196.126 28.318 196.578 28.614C202.649 32.5875 208.607 36.4587 214.557 40.3251C240.719 57.3249 266.738 74.2322 301.656 99.3311C302.097 99.6484 302.202 100.264 301.891 100.709ZM300.562 95.5611C300.257 96.0116 299.647 96.1288 299.197 95.8234C264.192 72.0992 229.883 49.0232 199.083 28.4477C198.632 28.1462 198.505 27.5361 198.8 27.0806C199.094 26.625 199.7 26.4941 200.156 26.7873C232.326 47.439 264.676 69.4908 300.305 94.1861C300.752 94.4962 300.867 95.1107 300.562 95.5611ZM299.246 90.3908C298.964 90.8446 298.375 90.9909 297.914 90.7212C277.171 78.5829 257.01 64.3793 237.375 50.5461C227.38 43.5043 217.521 36.5586 207.791 30.0301C206.074 28.8864 204.373 27.7561 202.672 26.6277C202.217 26.3262 202.09 25.7122 202.388 25.2554C202.685 24.7986 203.296 24.6715 203.751 24.9714C205.48 26.1087 207.211 27.2599 208.945 28.4231C220.064 35.8305 231.88 43.8062 249.133 55.4519C262.037 64.1625 277.984 74.9264 298.955 89.0413C299.399 89.3396 299.527 89.937 299.246 90.3908ZM297.883 85.2915C297.579 85.7393 296.971 85.856 296.522 85.5531C284.142 77.2146 272.463 69.3972 261.228 61.8769C241.444 48.634 223.037 36.3129 204.604 23.6918C204.156 23.3852 204.036 22.7738 204.336 22.3217C204.635 21.8696 205.242 21.7455 205.695 22.0436C239.741 44.4291 270.085 64.4796 297.634 83.919C298.077 84.2316 298.188 84.8437 297.883 85.2915ZM296.551 80.1492C296.252 80.5959 295.653 80.7201 295.201 80.429C286.623 74.9022 275.306 67.1485 262.417 58.3167C260.709 57.1468 258.974 55.9581 257.214 54.753C242.161 44.4457 225.272 32.9406 208.21 21.8838C207.76 21.5919 207.622 20.9929 207.9 20.5339C208.177 20.0748 208.769 19.9233 209.234 20.1924C234.111 34.6142 257.344 51.1161 294.967 77.8396L296.299 78.7856C296.737 79.0969 296.849 79.7025 296.551 80.1492ZM317.662 166.349C317.361 166.803 316.75 166.924 316.297 166.621C306.117 159.812 296.186 153.185 286.477 146.712C279.864 142.344 273.025 137.844 266.004 133.225C231.143 110.29 191.831 84.4266 153.785 57.2502C153.342 56.9341 153.235 56.3189 153.546 55.8728C153.856 55.4268 154.467 55.3172 154.913 55.6274C191.649 81.1427 230.113 106.774 272.798 135.219C277.643 138.448 282.543 141.713 287.501 145.018M316.32 161.218C316.02 161.663 315.42 161.784 314.969 161.491C240.91 113.274 205.941 89.0404 177.634 69.4241C170.641 64.5779 164.054 60.0136 157.386 55.4391C156.936 55.1307 156.818 54.5155 157.122 54.0635C157.427 53.6116 158.038 53.4931 158.489 53.7987C179.555 68.0602 200.444 81.8517 220.757 95.2633C254.766 117.718 287.162 139.107 316.075 159.853C316.512 160.166 316.621 160.772 316.32 161.218ZM312.307 145.808C312.005 146.259 311.397 146.379 310.945 146.078C288.369 131.016 264.476 114.874 240.044 98.3685C215.81 81.9955 191.045 65.2646 166.509 48.8748C166.056 48.5718 165.931 47.9575 166.23 47.5017C166.529 47.046 167.139 46.9209 167.594 47.2221C220.36 82.165 270.6 115.768 312.046 144.436C312.493 144.745 312.61 145.357 312.307 145.808ZM310.971 140.668C310.671 141.122 310.061 141.246 309.607 140.944C269.672 114.373 242.692 95.821 222.217 81.7419C210.37 73.5957 200.7 66.947 191.96 61.109C184.591 56.2592 177.456 51.6633 170.119 47.0687C169.658 46.7798 169.514 46.1713 169.798 45.707C170.082 45.2427 170.686 45.0971 171.15 45.3811C178.269 49.7383 185.261 54.2593 192.974 59.4095C208.029 69.3172 224.058 80.2808 244.755 94.4371C262.518 106.587 283.721 121.09 310.698 139.295C311.149 139.6 311.272 140.214 310.971 140.668ZM309.633 135.534C309.334 135.985 308.73 136.109 308.277 135.813C275.677 114.536 245.845 94.2352 216.509 74.2711C202.444 64.7002 188.494 55.2067 174.407 45.7204C174.164 45.5565 173.92 45.3927 173.677 45.2288C173.224 44.9237 173.102 44.3078 173.404 43.8532C173.706 43.3985 174.318 43.2773 174.772 43.5823C174.772 43.5824 174.772 43.5824 174.772 43.5824C175.014 43.7454 175.256 43.9083 175.498 44.0712C187.397 52.0807 199.621 60.1988 212.525 68.769C240.426 87.2987 271.508 107.941 309.37 134.166C309.815 134.474 309.932 135.084 309.633 135.534ZM308.298 130.392C308 130.848 307.39 130.974 306.935 130.674C273.225 108.466 243.591 88.3587 214.692 68.7499C202.168 60.2519 189.782 51.8475 177.262 43.4066C176.81 43.1018 176.688 42.4875 176.988 42.033C177.289 41.5786 177.899 41.4554 178.353 41.7577C191.448 50.4799 204.091 59.0333 219.848 69.6936C240.871 83.9167 267.438 101.89 308.019 129.02C308.472 129.323 308.597 129.936 308.298 130.392ZM293.553 73.9329C293.237 74.3763 292.624 74.4786 292.181 74.1617C284.546 68.7045 272.997 61.0643 259.525 52.1517C258.986 51.7952 258.444 51.4367 257.899 51.0762C247.521 44.2102 236.082 36.6324 224.477 28.7548C220.06 25.8529 215.87 23.0091 211.754 20.0333C211.314 19.7155 211.21 19.1017 211.521 18.6574C211.831 18.2132 212.44 18.1042 212.886 18.4132C217.106 21.337 221.348 24.2412 225.568 27.1061C229.662 29.7956 233.959 32.5397 238.587 35.496C240.81 36.916 243.11 38.3851 245.501 39.9205C258.212 48.0832 273.452 58.0963 293.327 72.5516C293.768 72.8721 293.869 73.4896 293.553 73.9329ZM318.7 175.512C318.401 175.966 317.792 176.091 317.338 175.79C262.386 139.446 227.735 115.754 201.24 97.6399C195.981 94.0442 191.043 90.6682 186.332 87.4567C173.221 78.6585 160.735 70.3081 148.281 62.0164C147.828 61.7149 147.702 61.1032 147.997 60.6471C148.293 60.191 148.901 60.0616 149.357 60.3575C161.661 68.335 173.541 76.3458 187.371 85.7733C215.281 104.502 246.021 125.256 285.317 151.788C295.719 158.811 306.719 166.238 318.426 174.14C318.877 174.445 319 175.058 318.7 175.512ZM317.351 170.392C317.043 170.839 316.434 170.951 315.986 170.644C272.021 140.486 240.329 119.289 214.96 102.425C209.906 99.0647 205.102 95.8764 200.502 92.8232C182.014 80.5527 166.814 70.464 151.855 60.1863C151.407 59.8785 151.289 59.2657 151.59 58.814C151.892 58.3623 152.5 58.241 152.953 58.5423C166.046 67.2626 179.055 75.9024 191.804 84.3685C240.819 116.92 285.966 146.902 317.107 169.016C317.55 169.331 317.659 169.945 317.351 170.392ZM313.344 154.975C313.043 155.425 312.437 155.547 311.985 155.248C274.12 130.204 232.427 101.981 190.415 73.5415C180.605 66.9005 170.777 60.2477 160.977 53.6208C160.526 53.3163 160.404 52.7042 160.702 52.2502C161.001 51.7963 161.609 51.6707 162.063 51.969C218.984 89.3309 273.6 126.163 313.085 153.605C313.53 153.915 313.646 154.526 313.344 154.975ZM312.001 149.844C311.699 150.289 311.097 150.409 310.648 150.113C309.482 149.347 308.315 148.58 307.147 147.812C260.126 116.907 211.346 84.8472 164.546 51.7874C164.1 51.4726 163.991 50.8554 164.302 50.4077C164.613 49.96 165.226 49.8508 165.673 50.1635C194.383 70.252 223.484 89.5021 249.118 106.395C250.975 107.619 252.815 108.831 254.635 110.029C277.919 125.369 297.997 138.595 311.757 148.477C312.195 148.792 312.303 149.399 312.001 149.844ZM290.585 67.6774C290.28 68.1215 289.678 68.2381 289.229 67.9396C273.805 57.6735 261.445 49.1975 250.758 41.8687C250.227 41.5047 249.7 41.1434 249.178 40.785C247.994 40.0277 246.832 39.287 245.692 38.5605C244.745 37.9578 243.813 37.3648 242.894 36.7801C232.434 30.1254 223.678 24.5552 215.32 18.197C214.899 17.8765 214.802 17.2802 215.101 16.8438C215.399 16.4073 215.987 16.2853 216.435 16.5667C226.992 23.2006 237.454 30.3497 250.262 39.1316C261.256 46.1639 274.194 54.6274 290.346 66.3091C290.783 66.625 290.889 67.2333 290.585 67.6774ZM319.737 184.678C319.439 185.131 318.832 185.257 318.378 184.959C271.068 154 210.706 113.039 149.076 71.0835C146.416 69.2754 143.757 67.4655 141.101 65.6542C140.65 65.3465 140.531 64.73 140.835 64.2771C141.14 63.8242 141.753 63.7063 142.204 64.0138C142.205 64.0139 142.205 64.014 142.205 64.0141C142.209 64.017 142.213 64.0198 142.217 64.0227C144.872 65.8298 147.524 67.6359 150.174 69.44C181.063 90.441 212.044 111.174 241.874 131.136C269.002 149.29 295.178 166.807 319.465 183.308C319.914 183.613 320.035 184.224 319.737 184.678ZM318.404 179.533C318.109 179.992 317.5 180.124 317.042 179.827C276.754 153.701 242.879 130.503 211.413 108.955C188.41 93.2026 166.695 78.3317 144.703 63.8432M318.404 179.533C318.698 179.074 318.567 178.46 318.109 178.162L318.404 179.533ZM318.109 178.162C282.229 154.797 251.704 134.013 223.869 114.964L318.109 178.162ZM223.869 114.964C220.835 112.888 217.833 110.832 214.859 108.796L223.869 114.964ZM214.859 108.796C190.554 92.1523 168.15 76.8102 145.774 62.1815L214.859 108.796ZM144.702 63.8429C144.701 63.8422 144.701 63.8416 144.7 63.841C144.244 63.5408 144.115 62.9272 144.412 62.4695C144.708 62.0118 145.318 61.883 145.774 62.1815M320.771 193.845C320.471 194.299 319.862 194.424 319.408 194.123L319.401 194.119L315.304 191.408C286.554 172.385 262.588 156.527 241.766 142.683C250.915 148.977 259.757 155.09 268.236 160.952C287.686 174.397 305.229 186.524 320.19 196.501C320.645 196.804 320.77 197.419 320.47 197.875C320.17 198.331 319.558 198.455 319.103 198.152C319.103 198.152 319.103 198.152 319.103 198.152C319.097 198.148 319.09 198.143 319.083 198.139C235.882 142.693 193.426 113.887 160.422 91.4935C149.763 84.2614 140.089 77.6983 130.348 71.1226C129.9 70.8204 129.776 70.2138 130.068 69.7599C130.36 69.3059 130.961 69.1724 131.418 69.46C143.247 76.9022 154.95 84.4325 166.452 91.9562C155.405 84.3608 144.771 76.9531 133.916 69.2888C133.475 68.9767 133.363 68.3664 133.666 67.9187C133.969 67.4711 134.574 67.3521 135.024 67.6517C163.141 86.3539 190.785 105.003 235.56 135.209C258.557 150.724 286.074 169.287 320.495 192.472C320.947 192.777 321.07 193.39 320.771 193.845ZM319.427 188.719C319.121 189.171 318.51 189.287 318.059 188.981C306.475 181.1 292.615 171.714 277.085 161.226C265.711 153.621 253.803 145.707 241.541 137.559C238.936 135.828 236.315 134.087 233.68 132.335C202.639 111.702 169.628 89.6973 137.51 67.4722C137.063 67.1631 136.947 66.5503 137.249 66.0996C137.552 65.6489 138.161 65.5291 138.612 65.8312C189.301 99.741 239.042 133.152 278.177 159.579C292.859 169.396 306.653 178.704 319.167 187.344C319.616 187.653 319.732 188.268 319.427 188.719ZM287.607 61.4319C287.302 61.8828 286.692 62 286.241 61.6941C281.187 58.2641 276.47 55.0866 272.047 52.1215C266.289 48.3265 260.898 44.8679 255.754 41.5675C254.008 40.4469 252.29 39.3446 250.596 38.2536C240.026 31.4475 230.377 25.079 220.541 17.4761C220.115 17.1466 220.028 16.5355 220.346 16.1014C220.664 15.6673 221.27 15.5697 221.709 15.8819C230.654 22.2429 240.277 28.6249 252.471 36.7117C258.627 40.7943 265.438 45.3113 273.148 50.4795C277.638 53.439 282.354 56.6038 287.348 60.0565C287.796 60.3662 287.912 60.9811 287.607 61.4319ZM286.271 56.2948C285.969 56.7444 285.362 56.8643 284.91 56.5636C278.067 52.0046 272.156 48.0782 266.923 44.6017C249.365 32.9378 239.428 26.3369 227.444 17.8896C226.999 17.5762 226.889 16.9616 227.196 16.5136C227.504 16.0656 228.114 15.9522 228.563 16.2598C237.085 22.104 246.089 28.0858 255.034 34.0281C265.758 41.1517 276.395 48.2185 286.014 54.9235C286.459 55.2336 286.573 55.8452 286.271 56.2948ZM283.31 50.0269C283.023 50.4844 282.424 50.6251 281.963 50.3429C274.069 45.5051 266.138 40.0148 257.998 34.3424C257.495 33.9916 256.99 33.6401 256.485 33.288C252.182 30.2882 247.817 27.2449 243.358 24.2221C239.747 21.7872 236.242 19.4626 232.706 17.1956C232.247 16.9009 232.111 16.2885 232.402 15.8271C232.693 15.3658 233.302 15.2299 233.762 15.5236C237.489 17.9029 241.139 20.3273 244.726 22.7617C248.292 25.1683 251.968 27.6876 255.872 30.3626C263.695 35.7229 272.431 41.7087 283.013 48.6675C283.464 48.9643 283.596 49.5694 283.31 50.0269ZM320.165 201.909C319.863 202.364 319.251 202.486 318.798 202.182C301.786 190.78 286.163 180.316 271.65 170.595C209.973 129.283 168.319 101.384 125.117 71.8374C124.667 71.5301 124.548 70.9164 124.85 70.4641C125.152 70.0117 125.762 69.8906 126.214 70.193C144.653 82.5182 162.792 94.7526 188.342 111.985C218.089 132.048 257.881 158.887 319.887 200.533M320.165 201.909C320.466 201.454 320.343 200.839 319.89 200.534L320.165 201.909ZM319.89 200.534C319.889 200.534 319.889 200.534 319.889 200.533L319.89 200.534ZM280.263 43.8819C279.94 44.2846 279.362 44.3686 278.937 44.0745C274.366 40.9131 270.275 38.0453 266.535 35.4236C265.125 34.4353 263.765 33.482 262.448 32.5612C261.915 32.239 261.377 31.9152 260.836 31.5896C260.507 31.3918 260.177 31.1933 259.846 30.9942C253.026 26.8934 245.74 22.5121 239.491 17.5234C239.087 17.2009 238.997 16.621 239.284 16.1921C239.572 15.7633 240.14 15.6299 240.588 15.886C247.699 19.9467 254.671 24.7116 263.52 30.8984C269.983 34.804 276 38.5879 280.17 42.5376C280.545 42.8934 280.586 43.4791 280.263 43.8819ZM318.219 204.836C317.918 205.29 317.306 205.412 316.853 205.108C206.512 131.076 164.089 102.591 121.533 73.6609C121.084 73.3557 120.963 72.7446 121.261 72.2915C121.559 71.8383 122.166 71.7124 122.62 72.0093C178.852 108.758 234.163 146.452 276.099 175.032C292.276 186.057 306.464 195.726 317.946 203.461C318.399 203.766 318.521 204.381 318.219 204.836ZM317.913 208.871C317.612 209.321 317.006 209.442 316.554 209.142C281.936 186.212 251.529 165.972 223.486 147.166C249.447 164.808 279.843 185.663 317.35 211.529C317.797 211.837 317.914 212.449 317.613 212.9C317.312 213.351 316.705 213.473 316.252 213.173C260.098 175.939 220.912 149.437 189.915 128.372C183.748 124.181 177.905 120.205 172.318 116.403C149.822 101.095 131.466 88.6049 112.731 76.2059C112.278 75.9061 112.149 75.2959 112.443 74.839C112.736 74.3821 113.342 74.2495 113.799 74.5421C134.144 87.5473 154.207 100.638 177.475 116.157C156.553 101.982 136.484 88.2738 116.301 74.3737C115.857 74.0677 115.738 73.4607 116.033 73.0095C116.328 72.5584 116.93 72.4295 117.384 72.7199C175.01 109.52 231.482 147.408 317.656 207.501C318.1 207.811 318.215 208.422 317.913 208.871ZM274.057 35.3526C273.764 35.8031 273.166 35.9347 272.711 35.6488C271.136 34.66 269.629 33.7199 268.184 32.8186C259.726 27.5415 253.4 23.5955 247.977 18.9961C247.573 18.6539 247.508 18.054 247.828 17.6341C248.149 17.2142 248.742 17.1229 249.174 17.4267C252.563 19.8054 256.121 22.1577 260.072 24.769L260.279 24.9059C264.309 27.5701 268.741 30.5026 273.789 33.9918C274.231 34.2977 274.35 34.9021 274.057 35.3526ZM317.314 216.926C317.016 217.378 316.412 217.505 315.958 217.21C288.186 199.206 247.173 171.4 200.82 139.974C171.206 119.897 139.413 98.342 107.499 76.9205C107.047 76.6172 106.923 76.0045 107.221 75.5495C107.519 75.0945 108.128 74.9681 108.583 75.2666C182.964 124.061 255.814 173.679 317.044 215.558C317.491 215.864 317.611 216.474 317.314 216.926ZM317.006 220.964C316.703 221.417 316.091 221.537 315.639 221.231C304.3 213.574 293.135 206.027 282.117 198.579C258.955 183.026 237.133 168.561 216.316 154.763C175.243 127.538 138.082 102.906 102.253 77.6236C101.811 77.3118 101.699 76.7017 102.002 76.254C102.305 75.8062 102.909 75.6867 103.36 75.9858C156.782 111.44 210.245 147.592 267.456 186.278C272.664 189.8 277.903 193.343 283.175 196.907C294.053 204.211 305.229 211.757 316.738 219.588C317.189 219.895 317.309 220.511 317.006 220.964ZM316.702 224.996C316.398 225.449 315.786 225.568 315.334 225.262C258.423 186.671 208.841 153.061 160.856 120.895C138.877 106.189 118.767 92.8019 98.6906 79.4613C98.2358 79.1591 98.1096 78.5443 98.4085 78.0878C98.7074 77.6313 99.3185 77.5057 99.7737 77.8072C120.512 91.5419 141.081 105.259 161.951 119.249C202.962 146.689 250.48 178.722 316.431 223.617M316.702 224.996C317.006 224.543 316.886 223.927 316.435 223.62L316.702 224.996ZM316.435 223.62C316.435 223.62 316.434 223.619 316.434 223.619L316.435 223.62ZM314.764 227.914C314.464 228.37 313.854 228.494 313.4 228.193C294.638 215.759 277.608 204.42 262.04 194.015C258.025 191.357 253.982 188.682 249.914 185.99C199.799 152.829 145.932 117.185 93.4415 80.1639C92.9994 79.8521 92.8874 79.2419 93.19 78.7941C93.4926 78.3463 94.0976 78.2268 94.5482 78.526C113.323 90.9906 132.03 103.72 154.717 119.159C161.823 123.995 169.319 129.096 177.331 134.538C200.571 150.325 228.15 168.984 263.108 192.351C280.843 204.092 298.048 215.505 314.487 226.542C314.94 226.845 315.063 227.459 314.764 227.914ZM314.459 231.949C314.159 232.4 313.554 232.524 313.101 232.227C294.441 219.997 277.468 208.806 261.925 198.503C280.165 210.924 297.077 222.648 312.263 233.516C312.704 233.831 312.811 234.443 312.505 234.888C312.198 235.334 311.591 235.448 311.143 235.144C296.754 225.387 282.987 216.044 269.736 207.052C225.932 177.324 187.766 151.423 151.407 127.046C151.253 126.944 151.099 126.841 150.944 126.739C129.325 112.416 107.098 97.6893 84.6503 82.7167C84.1969 82.4143 84.0712 81.801 84.369 81.3451C84.6668 80.8892 85.276 80.7623 85.7315 81.0614C107.898 95.6162 129.841 110.206 152.483 125.387C163.159 132.46 173.687 139.435 184.02 146.294C163.732 132.535 146.625 120.801 131.021 110.098C128.535 108.393 126.087 106.713 123.67 105.056C111.897 97.074 100.047 88.9988 88.225 80.8874C87.7757 80.5791 87.658 79.9643 87.9617 79.5123C88.2655 79.0604 88.8763 78.9416 89.3279 79.2466C100.933 87.0864 112.45 94.9665 124.783 103.422C156.653 125.03 187.961 145.958 216.627 165.08C221.603 168.399 226.499 171.663 231.305 174.867C264.413 196.942 293.231 216.158 314.193 230.579C314.639 230.887 314.758 231.497 314.459 231.949ZM310.57 237.801C310.271 238.254 309.664 238.378 309.211 238.08C260.677 206.187 215.54 176.299 172.037 146.942C178.461 151.334 185.004 155.815 191.691 160.395C225.741 183.715 263.534 209.599 308.346 239.349C308.8 239.651 308.927 240.265 308.629 240.722C308.331 241.178 307.721 241.305 307.265 241.005C258.813 209.124 217.721 181.247 180.155 155.672C176.082 152.9 172.052 150.154 168.057 147.434C135.204 125.058 104.827 104.369 74.199 84.1542C73.7458 83.8551 73.6162 83.2454 73.9085 82.7881C74.2008 82.3309 74.8058 82.1971 75.264 82.4883C93.6499 94.1754 111.905 106.22 130.797 118.927C113.53 107.115 96.4388 95.313 79.4065 83.423C78.9621 83.1128 78.8477 82.5016 79.1499 82.0523C79.4521 81.6029 80.0583 81.4827 80.5096 81.7826C87.0283 86.1145 93.503 90.4127 100.038 94.7509C150.5 128.25 204.56 164.138 310.302 236.431C310.75 236.737 310.87 237.349 310.57 237.801ZM306.679 243.658C306.377 244.111 305.767 244.231 305.314 243.928C274.245 223.117 242.582 201.695 210.576 180.041C197.136 170.948 183.635 161.814 170.092 152.667C167.185 150.728 164.336 148.828 161.538 146.963C155.341 142.832 149.401 138.877 143.675 135.064C115.964 116.61 93.2657 101.495 70.5992 85.9666C70.1509 85.6595 70.0319 85.047 70.3328 84.5949C70.6336 84.1428 71.2416 84.0204 71.6944 84.3207C104.92 106.355 138.175 128.724 171.179 151.016C205.885 174.171 248.668 202.866 306.412 242.284C306.862 242.591 306.981 243.205 306.679 243.658ZM304.733 246.588C304.429 247.039 303.818 247.156 303.367 246.851C183.306 165.462 129.732 129.68 82.325 98.0167C77.1774 94.5786 72.1026 91.1891 67.0231 87.795C66.5706 87.4926 66.4451 86.8803 66.7421 86.4247C67.0391 85.969 67.6472 85.8413 68.1029 86.1387C141.568 134.096 215.641 183.841 304.474 245.213C304.922 245.522 305.038 246.137 304.733 246.588ZM302.79 249.514C302.486 249.965 301.876 250.084 301.425 249.78C272.04 229.97 242.769 210.407 213.701 190.979C162.272 156.607 111.475 122.657 61.786 88.5059C61.3382 88.1981 61.2201 87.5856 61.5215 87.134C61.8229 86.6824 62.4309 86.5607 62.8833 86.8614C70.5518 91.9589 78.2434 97.0681 85.9789 102.207C150.922 145.346 218.967 190.546 302.529 248.14C302.977 248.448 303.094 249.063 302.79 249.514ZM299.214 251.322C298.919 251.777 298.312 251.907 297.856 251.613C280.122 240.166 262.158 228.278 243.956 216.064C260.655 227.523 278.282 239.745 297.006 252.892C297.449 253.204 297.562 253.815 297.258 254.263C296.955 254.712 296.349 254.831 295.898 254.53L290.438 250.882C164.869 166.99 109.779 130.185 54.6137 92.1489C54.1661 91.8403 54.049 91.2272 54.3516 90.776C54.6542 90.3248 55.263 90.2047 55.7148 90.5071C74.3154 102.956 93.2855 115.449 113.297 128.627C136.422 143.855 160.937 159.999 187.878 178.05C185.812 176.64 183.743 175.228 181.672 173.814C142.628 147.567 100.507 119.129 58.2041 90.3303C57.7547 90.0244 57.634 89.4119 57.9339 88.9589C58.2338 88.5059 58.8419 88.3822 59.2955 88.6818C97.3637 113.833 134.376 139.115 170.449 163.755C174.568 166.569 178.676 169.374 182.771 172.17C226.786 201.758 266.889 228.561 298.931 249.953C299.383 250.255 299.509 250.866 299.214 251.322ZM293.675 256.082C293.373 256.533 292.764 256.654 292.312 256.351C289.553 254.504 286.734 252.616 283.858 250.69C222.73 209.754 135.648 151.437 49.3926 92.8692C48.9427 92.5637 48.8214 91.9513 49.1209 91.498C49.4204 91.0446 50.0284 90.9203 50.4823 91.2196C147.023 154.889 243.583 220.488 293.411 254.708C293.86 255.016 293.978 255.63 293.675 256.082ZM291.729 259.01C291.425 259.462 290.813 259.579 290.362 259.274C227.357 216.568 180.941 185.609 143.407 160.574C104.073 134.338 74.4928 114.608 45.7985 94.6853C45.3523 94.3755 45.237 93.7626 45.5403 93.3124C45.8437 92.8622 46.4521 92.7432 46.9032 93.0458C63.6098 104.253 80.3313 115.348 98.3958 127.334C145.646 158.685 202.083 196.131 291.468 257.634C291.916 257.943 292.033 258.558 291.729 259.01ZM288.144 260.831C287.839 261.284 287.228 261.402 286.776 261.095C260.054 242.963 231.021 223.509 200.667 203.199C190.215 196.273 179.968 189.504 169.894 182.851C124.813 153.073 83.2066 125.591 42.2047 96.5015C41.7619 96.1873 41.6526 95.5738 41.9599 95.1267C42.2672 94.6797 42.8763 94.5662 43.3245 94.8725C92.1344 128.217 141.668 161.352 188.475 192.664C192.901 195.625 197.302 198.569 201.677 201.496C228.818 219.481 257.36 238.543 287.88 259.455C288.33 259.764 288.448 260.379 288.144 260.831ZM284.564 262.644C284.266 263.098 283.659 263.224 283.205 262.926C233.794 230.597 183.607 196.637 133.815 162.831C103.413 142.413 71.749 121.015 40.2755 99.4378C39.8261 99.1297 39.7081 98.5152 40.0114 98.0631C40.3147 97.6111 40.9252 97.4917 41.377 97.7961C66.6147 114.801 92.1491 132.144 117.821 149.58C123.516 153.448 129.218 157.32 134.924 161.195C159.483 177.689 183.216 193.542 205.361 208.334C235.169 228.245 262.099 246.233 284.291 261.274C284.74 261.579 284.862 262.191 284.564 262.644ZM279.331 263.373C279.027 263.823 278.419 263.941 277.968 263.638C235.65 235.179 200.991 212.219 171.576 192.786C202.699 213.575 237.293 237.042 277.132 264.927C277.578 265.239 277.69 265.854 277.383 266.303C277.076 266.752 276.465 266.866 276.016 266.559C218.57 227.237 168.147 193.183 120.23 161.115C117.11 159.057 114.021 157.02 110.961 155.002C83.9269 137.175 59.1108 120.812 34.747 104.187C34.2978 103.88 34.1779 103.267 34.4785 102.815C34.7792 102.362 35.3876 102.239 35.8407 102.54C51.993 113.253 68.1171 123.966 84.402 134.815C67.3006 123.189 51.8674 112.389 36.6643 101.242C36.2318 100.924 36.1283 100.319 36.4312 99.8772C36.734 99.4351 37.3328 99.3171 37.7811 99.6112C126.324 157.677 213.551 216.411 279.074 261.999C279.52 262.31 279.635 262.923 279.331 263.373ZM272.161 267.015C271.859 267.464 271.253 267.585 270.801 267.285C226.79 238.062 186.177 210.513 147.032 183.961L146.576 183.651C107.29 157.003 69.4755 131.355 31.1732 106.017C30.7184 105.716 30.5905 105.102 30.8873 104.645C31.184 104.188 31.7935 104.06 32.2498 104.358C34.5527 105.864 36.8543 107.369 39.1567 108.874C102.907 150.557 167.17 192.575 271.904 265.644C272.348 265.954 272.463 266.565 272.161 267.015ZM266.934 267.731C266.63 268.183 266.019 268.302 265.568 267.997C206.314 227.947 162.465 198.624 126.885 174.83C87.3956 148.422 58.0909 128.824 29.2136 108.934C28.7685 108.627 28.6495 108.019 28.9464 107.568C29.2433 107.117 29.8462 106.99 30.3003 107.282C105.148 155.555 180.679 207.368 254.155 257.771C258.334 260.637 262.506 263.499 266.671 266.356C267.12 266.664 267.238 267.279 266.934 267.731ZM261.712 268.442C261.413 268.896 260.804 269.02 260.35 268.721C194.631 225.335 148.568 193.827 111.075 168.181C92.688 155.604 76.3625 144.437 60.7909 133.971C48.9985 126.135 37.3558 118.445 25.6468 110.768C25.191 110.47 25.0605 109.857 25.3549 109.399C25.6492 108.941 26.2576 108.809 26.7154 109.105C38.3501 116.62 49.8478 124.234 61.7934 132.263C104.338 160.533 148.824 190.706 205.392 229.073C222.827 240.899 241.411 253.504 261.439 267.071C261.89 267.376 262.012 267.989 261.712 268.442ZM256.486 269.16C256.186 269.615 255.576 269.739 255.122 269.438C189.701 226.076 107.087 170.328 23.6887 113.685C23.2392 113.38 23.1177 112.768 23.4166 112.315C23.7154 111.861 24.3228 111.736 24.7769 112.035C67.3599 139.997 109.273 168.38 164.918 206.062C191.648 224.164 221.547 244.411 256.211 267.788C256.663 268.092 256.786 268.706 256.486 269.16ZM249.614 268.779C249.313 269.229 248.706 269.35 248.254 269.05C185.99 227.688 116.89 180.956 47.083 133.746C38.644 128.039 30.1946 122.325 21.7457 116.612C21.2948 116.307 21.1725 115.694 21.4721 115.24C21.7716 114.786 22.3805 114.662 22.8345 114.962C103.891 168.528 185.415 223.101 249.354 267.407C249.8 267.716 249.916 268.328 249.614 268.779ZM241.103 267.286C240.8 267.739 240.188 267.858 239.736 267.553C176.342 224.738 132.966 195.69 99.8566 173.517C66.6806 151.3 43.8121 135.985 21.4387 120.639C20.9913 120.332 20.8722 119.721 21.1719 119.269C21.4715 118.817 22.078 118.694 22.5313 118.992C72.7138 151.994 125.724 187.254 240.838 265.911C241.288 266.218 241.406 266.834 241.103 267.286ZM234.228 266.909C233.921 267.355 233.314 267.468 232.866 267.163C197.105 242.825 166.078 221.78 137.844 202.722C133.126 199.585 128.33 196.397 123.467 193.164C91.2971 171.778 56.1804 148.434 21.1397 124.674C20.6894 124.368 20.5679 123.755 20.8678 123.302C21.1678 122.848 21.7765 122.724 22.2303 123.025C59.2193 147.504 95.8192 171.971 138.93 201.071C177.855 226.96 211.504 249.452 233.987 265.536C234.428 265.851 234.535 266.463 234.228 266.909ZM227.367 266.514C227.066 266.962 226.463 267.083 226.012 266.787C171.521 231.04 125.676 199.86 82.3712 170.408C61.4995 156.213 41.2178 142.42 20.8425 128.709M227.367 266.514C227.668 266.067 227.556 265.458 227.115 265.147L227.367 266.514ZM227.115 265.147C174.296 227.802 125.466 195.571 78.6628 164.677L227.115 265.147ZM78.6628 164.677C59.4562 151.999 40.5909 139.547 21.9312 127.059L78.6628 164.677ZM20.8414 128.709C20.8407 128.708 20.84 128.708 20.8393 128.707C20.3865 128.402 20.2637 127.787 20.5649 127.332C20.8661 126.878 21.4776 126.755 21.9312 127.059M218.864 265.012C218.566 265.465 217.96 265.592 217.506 265.295C180.743 241.326 151.093 221.936 126.194 205.478C153.778 223.903 181.1 242.241 208.444 261.05C208.894 261.359 209.01 261.975 208.705 262.427C208.399 262.878 207.787 262.995 207.336 262.687C180.136 244.12 144.346 220.101 105.066 193.753C76.708 174.833 47.9947 155.676 18.5888 135.661C18.1379 135.354 18.0181 134.739 18.3211 134.286C18.624 133.833 19.2353 133.713 19.6876 134.017C38.1598 146.466 56.6555 158.891 74.7288 171.02C53.5913 156.614 36.0791 144.253 18.8619 131.611C18.4261 131.291 18.3254 130.68 18.6358 130.238C18.9461 129.796 19.5526 129.687 19.9978 129.994C45.3788 147.471 70.8029 164.442 101.825 185.149C133.139 206.052 170.156 230.762 218.591 263.643C219.04 263.948 219.162 264.559 218.864 265.012ZM200.2 260.93C199.897 261.383 199.286 261.504 198.833 261.2C156.662 232.84 124.802 211.361 98.6831 193.753C65.8353 171.609 42.0679 155.586 18.2924 139.697C17.841 139.395 17.7148 138.785 18.0095 138.33C18.3042 137.874 18.9097 137.743 19.3663 138.037C53.3644 159.887 86.9929 182.764 141.858 220.088C158.939 231.708 178.08 244.729 199.93 259.555C200.382 259.861 200.502 260.476 200.2 260.93ZM191.685 259.448C191.377 259.898 190.765 260.011 190.316 259.702C134.331 221.176 92.4299 193.303 54.9035 168.341C42.7991 160.289 31.1499 152.54 19.63 144.834C19.1798 144.533 19.0532 143.924 19.346 143.469C19.6387 143.014 20.242 142.881 20.6993 143.171C66.7507 172.379 111.766 202.613 191.431 258.07C191.879 258.382 191.992 258.998 191.685 259.448ZM183.188 257.934C182.894 258.389 182.289 258.52 181.833 258.228C119.622 218.459 80.1741 191.05 46.0412 167.334C37.5783 161.454 29.4423 155.801 21.3669 150.242C21.2308 150.149 21.0947 150.055 20.9586 149.961C20.5085 149.652 20.3924 149.034 20.6992 148.583C21.006 148.131 21.6195 148.016 22.0697 148.326C22.2134 148.425 22.3571 148.524 22.5008 148.623C47.2994 165.686 72.4943 182.567 118.567 213.435C136.464 225.425 157.51 239.526 182.906 256.568C183.356 256.87 183.482 257.479 183.188 257.934ZM174.669 256.458C174.364 256.91 173.752 257.028 173.3 256.721C173.3 256.721 173.3 256.721 173.299 256.72M174.669 256.458C174.974 256.005 174.855 255.389 174.404 255.081L174.669 256.458ZM37.5182 163.109C33.908 160.64 30.2997 158.162 26.6904 155.672C26.2411 155.362 25.628 155.475 25.3203 155.926C25.0126 156.376 25.1268 156.993 25.5753 157.304C29.1612 159.791 32.7369 162.246 36.3888 164.731C58.0625 179.551 79.8359 194.056 102.273 209.004C121.188 221.605 140.574 234.52 160.77 248.202C164.811 250.946 168.983 253.782 173.296 256.718M161.818 246.524C121.346 219.047 94.2107 200.992 73.2592 187.052C59.3074 177.769 48.0977 170.31 37.5182 163.109M174.404 255.081C170.171 252.192 165.977 249.342 161.818 246.524L174.404 255.081ZM166.167 254.957C165.869 255.411 165.261 255.537 164.806 255.239C160.989 252.739 156.814 249.934 152.324 246.875C144.636 241.638 136.027 235.658 126.721 229.193C100.16 210.743 67.9135 188.343 35.1622 167.991L35.679 167.148L36.2449 166.337C65.5875 187.086 95.127 206.622 123.817 225.596C133.822 232.213 143.725 238.762 153.479 245.27C157.947 248.313 162.096 251.1 165.88 253.579L165.343 254.409L164.796 255.233M153.479 245.27C157.644 248.048 161.783 250.82 165.89 253.586C166.341 253.89 166.465 254.502 166.167 254.957M146.158 245.745C145.853 246.195 145.243 246.312 144.793 246.006C122.087 230.619 104.857 219.151 90.5306 209.617C73.7184 198.428 60.9071 189.902 47.9439 180.828C47.5058 180.521 47.3884 179.921 47.6788 179.472C47.9691 179.024 48.5621 178.889 49.0178 179.169C80.5604 198.516 112.725 221.099 134.257 236.217C138.603 239.268 142.515 242.015 145.902 244.37C146.349 244.68 146.463 245.295 146.158 245.745Z" fill="#C3C8E1"/>
<path fill-rule="evenodd" clip-rule="evenodd" d="M246.998 16.9018C227.837 10.6147 210.487 18.1384 192.8 29.8322C186.828 33.7802 180.866 38.1697 174.801 42.6351C171.876 44.7887 168.927 46.9601 165.941 49.1081C156.791 55.6905 147.34 62.0206 137.363 66.7838L137.361 66.7849C127.042 71.6795 114.947 74.8214 102.557 77.501C98.3824 78.4038 94.1798 79.2532 89.9962 80.0988C81.719 81.7717 73.516 83.4297 65.749 85.457C42.3394 91.5672 23.6487 100.854 19.9381 123.135C19.9351 123.153 19.9316 123.171 19.9276 123.189C15.1553 144.5 27.7142 161.521 46.4628 176.87C55.8164 184.527 66.6304 191.701 77.437 198.727C78.624 199.499 79.811 200.269 80.9959 201.038C90.5811 207.255 100.032 213.386 108.246 219.632C133.47 238.797 157.395 251.7 185.418 256.073L185.422 256.073C191.707 257.079 198.047 258.259 204.38 259.437C219.347 262.22 234.274 264.997 248.335 265.464C268.281 266.128 286.192 262.121 299.605 246.992C299.614 246.982 299.624 246.971 299.633 246.961C299.641 246.954 299.649 246.946 299.656 246.938C314.802 232.247 319.193 212.594 318.466 191.334C317.762 170.738 312.259 148.788 307.206 128.629C307.038 127.958 306.87 127.29 306.703 126.624L306.698 126.605L306.699 126.605C306.046 123.761 305.397 120.868 304.74 117.941C300.573 99.381 296.097 79.4434 288.64 61.9002C280.018 41.6194 267.48 24.7109 246.998 16.9018ZM308.618 126.155C307.971 123.331 307.325 120.452 306.67 117.533C302.507 98.9873 297.988 78.8501 290.453 61.1256C281.722 40.5865 268.873 23.1147 247.67 15.0396C247.656 15.0342 247.642 15.0291 247.627 15.0244C227.548 8.42528 209.503 16.4119 191.712 28.1746C185.7 32.1497 179.669 36.59 173.58 41.0726C170.665 43.219 167.736 45.3751 164.79 47.4944C155.665 54.0591 146.328 60.3057 136.514 64.9915C126.411 69.7837 114.502 72.8881 102.137 75.5624C98.0203 76.4526 93.8473 77.2962 89.6772 78.1392C81.3656 79.8193 73.0658 81.4971 65.248 83.5377C41.8009 89.6577 21.9342 99.2188 17.9971 122.775C12.9758 145.26 26.3723 162.976 45.2199 178.406C54.668 186.14 65.567 193.368 76.3692 200.391C77.5574 201.164 78.7443 201.934 79.928 202.702C89.5236 208.926 98.9082 215.014 107.059 221.212L107.059 221.213C132.42 240.481 156.649 253.588 185.118 258.031C191.288 259.019 197.562 260.186 203.86 261.357C218.893 264.153 234.059 266.973 248.276 267.446C268.501 268.119 287.097 264.066 301.055 248.341C316.735 233.113 321.174 212.816 320.438 191.272C319.726 170.459 314.177 148.327 309.138 128.23C308.964 127.536 308.791 126.844 308.618 126.155Z" fill="#C3C8E1"/>
</g>
</svg>
