<svg width="44" height="44" viewBox="0 0 44 44" fill="none" xmlns="http://www.w3.org/2000/svg">
<path d="M34.178 16.4493C34.0932 16.3479 33.9872 16.2662 33.8674 16.2103C33.7476 16.1543 33.617 16.1252 33.4847 16.1253H15.2705L14.584 12.3507C14.5462 12.1426 14.4366 11.9543 14.2742 11.8188C14.1118 11.6832 13.907 11.6089 13.6955 11.6089H10.9033C10.6637 11.6089 10.434 11.7041 10.2646 11.8735C10.0952 12.0428 10 12.2726 10 12.5122C10 12.7517 10.0952 12.9815 10.2646 13.1509C10.434 13.3203 10.6637 13.4154 10.9033 13.4154H12.9356L15.8215 29.2555C15.9065 29.7253 16.1141 30.1643 16.4233 30.528C15.9966 30.9266 15.6886 31.4356 15.5334 31.9986C15.3783 32.5615 15.3821 33.1564 15.5445 33.7174C15.7068 34.2783 16.0213 34.7833 16.4531 35.1764C16.885 35.5694 17.4172 35.8352 17.9909 35.9443C18.5645 36.0533 19.1572 36.0014 19.7031 35.7941C20.249 35.5869 20.7269 35.2326 21.0837 34.7703C21.4405 34.3081 21.6624 33.7561 21.7246 33.1755C21.7869 32.5949 21.6871 32.0083 21.4364 31.481H26.5646C26.3626 31.904 26.258 32.367 26.2587 32.8359C26.2587 33.4612 26.4441 34.0724 26.7915 34.5923C27.1388 35.1122 27.6326 35.5174 28.2102 35.7567C28.7879 35.996 29.4236 36.0586 30.0368 35.9366C30.6501 35.8146 31.2134 35.5135 31.6555 35.0714C32.0976 34.6292 32.3987 34.0659 32.5207 33.4527C32.6427 32.8394 32.5801 32.2037 32.3408 31.626C32.1015 31.0484 31.6963 30.5546 31.1764 30.2072C30.6566 29.8598 30.0453 29.6744 29.4201 29.6744H18.4872C18.2757 29.6744 18.0709 29.6001 17.9085 29.4646C17.7461 29.329 17.6365 29.1407 17.5987 28.9326L17.2407 26.9646H30.338C30.9726 26.9645 31.587 26.7417 32.0742 26.335C32.5613 25.9283 32.8903 25.3635 33.0037 24.7391L34.3767 17.19C34.3999 17.0595 34.3942 16.9255 34.3598 16.7975C34.3255 16.6695 34.2634 16.5506 34.178 16.4493ZM19.9358 32.8359C19.9358 33.1039 19.8564 33.3658 19.7075 33.5886C19.5586 33.8115 19.347 33.9851 19.0995 34.0877C18.8519 34.1902 18.5795 34.217 18.3166 34.1648C18.0538 34.1125 17.8124 33.9834 17.6229 33.794C17.4334 33.6045 17.3044 33.363 17.2521 33.1002C17.1998 32.8374 17.2267 32.565 17.3292 32.3174C17.4318 32.0698 17.6054 31.8582 17.8282 31.7093C18.051 31.5604 18.313 31.481 18.581 31.481C18.9403 31.481 19.2849 31.6237 19.539 31.8778C19.7931 32.1319 19.9358 32.4765 19.9358 32.8359ZM30.775 32.8359C30.775 33.1039 30.6955 33.3658 30.5466 33.5886C30.3977 33.8115 30.1861 33.9851 29.9386 34.0877C29.691 34.1902 29.4186 34.217 29.1557 34.1648C28.8929 34.1125 28.6515 33.9834 28.462 33.794C28.2725 33.6045 28.1435 33.363 28.0912 33.1002C28.0389 32.8374 28.0658 32.565 28.1683 32.3174C28.2709 32.0698 28.4445 31.8582 28.6673 31.7093C28.8901 31.5604 29.1521 31.481 29.4201 31.481C29.7794 31.481 30.124 31.6237 30.3781 31.8778C30.6322 32.1319 30.775 32.4765 30.775 32.8359Z" fill="#C3C8E1"/>
<path d="M31.3369 8.27051C30.6207 8.27051 30.1851 8.41025 29.9338 8.52882C29.6113 8.3679 29.2428 8.27051 28.8239 8.27051C28.4051 8.27051 28.0365 8.3679 27.714 8.52882C27.4627 8.41025 27.0271 8.27051 26.3109 8.27051C25.0545 8.27051 24.2168 11.6581 24.2168 12.5051C24.2168 12.8565 24.7697 13.1784 25.5319 13.3096C25.8 14.2582 27.0648 14.9823 28.6145 15.0458V13.2334C28.3674 13.0767 27.9863 12.793 27.9863 12.5051C27.9863 12.0816 28.8239 12.0816 28.8239 12.0816C28.8239 12.0816 29.6616 12.0816 29.6616 12.5051C29.6616 12.793 29.2805 13.0767 29.0333 13.2334V15.0458C30.583 14.9823 31.8479 14.2582 32.1159 13.3096C32.8782 13.1784 33.4311 12.8565 33.4311 12.5051C33.4311 11.6581 32.5934 8.27051 31.3369 8.27051ZM25.5361 12.45C25.3267 12.3992 25.1634 12.3399 25.0545 12.2933C25.1592 11.1204 25.9759 9.2868 26.3319 9.11742C26.5581 9.11742 26.7298 9.14283 26.8847 9.164C26.0052 10.1422 25.6576 11.6751 25.5361 12.45ZM27.5674 11.6581C27.4564 11.6581 27.3498 11.6135 27.2713 11.5341C27.1927 11.4547 27.1486 11.347 27.1486 11.2347C27.1486 11.006 27.3371 10.8112 27.5674 10.8112C27.6785 10.8112 27.785 10.8559 27.8636 10.9353C27.9421 11.0147 27.9863 11.1224 27.9863 11.2347C27.9863 11.4718 27.7978 11.6581 27.5674 11.6581ZM30.0804 11.6581C29.9693 11.6581 29.8628 11.6135 29.7843 11.5341C29.7057 11.4547 29.6616 11.347 29.6616 11.2347C29.6616 11.006 29.8501 10.8112 30.0804 10.8112C30.1915 10.8112 30.298 10.8559 30.3766 10.9353C30.4551 11.0147 30.4992 11.1224 30.4992 11.2347C30.4992 11.4718 30.3108 11.6581 30.0804 11.6581ZM32.1117 12.45C31.9903 11.6751 31.6427 10.1422 30.7631 9.164C30.9181 9.14283 31.0898 9.11742 31.316 9.11742C31.672 9.2868 32.4887 11.1204 32.5934 12.2933C32.4887 12.3399 32.3253 12.3992 32.1117 12.45Z" fill="#C3C8E1"/>
<path d="M22.5375 8.05414C22.4327 8.0044 22.3152 7.98841 22.2009 8.00834C22.0867 8.02827 21.9814 8.08315 21.8994 8.16549C21.8945 8.17044 21.8903 8.17503 21.886 8.17998L21.2789 8.88342C20.6563 8.49203 19.9368 8.28447 19.2025 8.28447C18.4681 8.28447 17.7486 8.49203 17.126 8.88342L16.5171 8.17998C16.5129 8.17503 16.5087 8.17044 16.5037 8.16549C16.4217 8.08315 16.3164 8.02827 16.2022 8.00834C16.088 7.98841 15.9704 8.0044 15.8656 8.05414C15.7677 8.10243 15.6855 8.17761 15.6284 8.27095C15.5713 8.3643 15.5417 8.47199 15.543 8.58154V11.676C15.543 13.4081 16.9523 14.8443 18.764 15.0454C18.7837 15.0476 18.8037 15.0456 18.8226 15.0395C18.8415 15.0334 18.8589 15.0233 18.8736 15.0099C18.8884 14.9966 18.9001 14.9803 18.9082 14.962C18.9162 14.9437 18.9203 14.924 18.9201 14.904V13.7729L18.448 13.2981C18.3945 13.2459 18.3631 13.175 18.3605 13.1001C18.3578 13.0252 18.384 12.9522 18.4336 12.8962C18.4594 12.8686 18.4905 12.8465 18.525 12.8312C18.5595 12.8158 18.5967 12.8076 18.6344 12.807C18.6721 12.8064 18.7095 12.8135 18.7445 12.8277C18.7794 12.8419 18.8112 12.8631 18.8378 12.8899L19.2016 13.2554L19.5653 12.8895C19.592 12.8627 19.6237 12.8416 19.6587 12.8273C19.6936 12.8131 19.7311 12.8061 19.7688 12.8067C19.8065 12.8073 19.8437 12.8155 19.8781 12.8308C19.9126 12.8461 19.9437 12.8682 19.9695 12.8959C20.0192 12.9518 20.0454 13.0248 20.0427 13.0997C20.04 13.1746 20.0086 13.2456 19.9551 13.2978L19.483 13.7725V14.9037C19.4829 14.9236 19.487 14.9434 19.495 14.9616C19.503 14.9799 19.5148 14.9962 19.5295 15.0096C19.5443 15.0229 19.5617 15.033 19.5806 15.0391C19.5995 15.0452 19.6195 15.0473 19.6392 15.0451C21.4509 14.8439 22.8601 13.4081 22.8601 11.676V8.58154C22.8615 8.47199 22.8319 8.3643 22.7748 8.27095C22.7177 8.17761 22.6354 8.10243 22.5375 8.05414ZM17.6537 12.2416C17.5702 12.2416 17.4886 12.2167 17.4192 12.1701C17.3498 12.1235 17.2957 12.0572 17.2637 11.9797C17.2318 11.9022 17.2234 11.8169 17.2397 11.7346C17.256 11.6523 17.2962 11.5768 17.3552 11.5174C17.4143 11.4581 17.4895 11.4177 17.5714 11.4013C17.6533 11.385 17.7381 11.3934 17.8153 11.4255C17.8924 11.4576 17.9583 11.512 18.0047 11.5817C18.0511 11.6515 18.0759 11.7335 18.0759 11.8174C18.0759 11.9299 18.0314 12.0378 17.9522 12.1173C17.8731 12.1969 17.7657 12.2416 17.6537 12.2416ZM18.3573 9.97924C18.3573 10.0542 18.3276 10.1262 18.2749 10.1792C18.2221 10.2322 18.1505 10.262 18.0759 10.262C18.0012 10.262 17.9296 10.2322 17.8769 10.1792C17.8241 10.1262 17.7944 10.0542 17.7944 9.97924V9.30761C17.7944 9.23261 17.8241 9.16068 17.8769 9.10765C17.9296 9.05461 18.0012 9.02482 18.0759 9.02482C18.1505 9.02482 18.2221 9.05461 18.2749 9.10765C18.3276 9.16068 18.3573 9.23261 18.3573 9.30761V9.97924ZM19.483 9.97924C19.483 10.0542 19.4534 10.1262 19.4006 10.1792C19.3478 10.2322 19.2762 10.262 19.2016 10.262C19.1269 10.262 19.0554 10.2322 19.0026 10.1792C18.9498 10.1262 18.9201 10.0542 18.9201 9.97924V9.13086C18.9201 9.05586 18.9498 8.98393 19.0026 8.9309C19.0554 8.87787 19.1269 8.84807 19.2016 8.84807C19.2762 8.84807 19.3478 8.87787 19.4006 8.9309C19.4534 8.98393 19.483 9.05586 19.483 9.13086V9.97924ZM20.0459 9.97924V9.30761C20.0459 9.23261 20.0755 9.16068 20.1283 9.10765C20.1811 9.05461 20.2526 9.02482 20.3273 9.02482C20.4019 9.02482 20.4735 9.05461 20.5263 9.10765C20.5791 9.16068 20.6087 9.23261 20.6087 9.30761V9.97924C20.6087 10.0542 20.5791 10.1262 20.5263 10.1792C20.4735 10.2322 20.4019 10.262 20.3273 10.262C20.2526 10.262 20.1811 10.2322 20.1283 10.1792C20.0755 10.1262 20.0459 10.0542 20.0459 9.97924ZM20.7494 12.2416C20.6659 12.2416 20.5843 12.2167 20.5149 12.1701C20.4455 12.1235 20.3914 12.0572 20.3594 11.9797C20.3275 11.9022 20.3191 11.8169 20.3354 11.7346C20.3517 11.6523 20.3919 11.5768 20.4509 11.5174C20.51 11.4581 20.5852 11.4177 20.6671 11.4013C20.749 11.385 20.8338 11.3934 20.911 11.4255C20.9881 11.4576 21.054 11.512 21.1004 11.5817C21.1468 11.6515 21.1716 11.7335 21.1716 11.8174C21.1716 11.9299 21.1271 12.0378 21.0479 12.1173C20.9688 12.1969 20.8614 12.2416 20.7494 12.2416Z" fill="#C3C8E1"/>
</svg>
