<svg width="44" height="44" viewBox="0 0 44 44" fill="none" xmlns="http://www.w3.org/2000/svg">
<path fill-rule="evenodd" clip-rule="evenodd" d="M10 14C10 13.4477 10.4477 13 11 13L33 13C33.5523 13 34 13.4477 34 14C34 14.5523 33.5523 15 33 15L11 15C10.4477 15 10 14.5523 10 14Z" fill="white"/>
<path fill-rule="evenodd" clip-rule="evenodd" d="M10 22C10 21.4477 10.4477 21 11 21L33 21C33.5523 21 34 21.4477 34 22C34 22.5523 33.5523 23 33 23L11 23C10.4477 23 10 22.5523 10 22Z" fill="white"/>
<path fill-rule="evenodd" clip-rule="evenodd" d="M10 30C10 29.4477 10.4477 29 11 29L33 29C33.5523 29 34 29.4477 34 30C34 30.5523 33.5523 31 33 31L11 31C10.4477 31 10 30.5523 10 30Z" fill="white"/>
</svg>
