<svg width="44" height="44" viewBox="0 0 44 44" fill="none" xmlns="http://www.w3.org/2000/svg">
<path fill-rule="evenodd" clip-rule="evenodd" d="M13.7071 30.7071C13.3166 30.3166 13.3166 29.6834 13.7071 29.2929L29.2635 13.7365C29.654 13.346 30.2871 13.346 30.6777 13.7365C31.0682 14.1271 31.0682 14.7602 30.6777 15.1508L15.1213 30.7071C14.7308 31.0976 14.0976 31.0976 13.7071 30.7071Z" fill="white"/>
<path fill-rule="evenodd" clip-rule="evenodd" d="M13.2929 13.7071C13.6834 13.3166 14.3166 13.3166 14.7071 13.7071L30.2635 29.2635C30.654 29.654 30.654 30.2871 30.2635 30.6777C29.8729 31.0682 29.2398 31.0682 28.8492 30.6777L13.2929 15.1213C12.9024 14.7308 12.9024 14.0976 13.2929 13.7071Z" fill="white"/>
</svg>
