<svg width="237" height="48" viewBox="0 0 237 48" fill="none" xmlns="http://www.w3.org/2000/svg">
<path d="M201.676 12.3651H232.835V15.477H201.676V12.3651ZM203.551 16.7935H230.959V19.6262H203.551V16.7935ZM199.601 20.9826H234.949V24.1743H199.601V20.9826ZM208.937 32.752H224.536V34.9463H208.937V32.752ZM214.722 14.32H219.669V23.536H214.722V14.32ZM206.743 10.1708L211.011 8.85421C211.929 9.9713 212.887 11.5272 213.405 12.5246L208.977 14.1604C208.538 13.0832 207.54 11.4076 206.743 10.1708ZM223.26 8.77441L228.526 9.77182C227.409 11.3677 226.332 12.764 225.454 13.7215L221.345 12.6443C222.023 11.4873 222.861 9.8915 223.26 8.77441ZM225.015 21.5412C227.209 25.0121 231.558 28.0442 236.306 29.4805C235.308 30.3981 233.952 32.0737 233.273 33.2307C228.247 31.3157 223.858 27.4059 221.225 22.8577L225.015 21.5412ZM209.535 28.9618H228.286V38.7364H209.535V36.183H223.459V31.5152H209.535V28.9618ZM208.977 21.6609L213.405 22.9375C210.772 27.6453 206.104 31.4753 201.357 33.7893C200.678 32.9116 199.083 31.1561 198.125 30.3582C202.673 28.523 206.862 25.4111 208.977 21.6609ZM211.49 25.3712H223.1V27.6852H211.49V25.3712ZM205.346 46.4762L205.187 43.2048L206.782 41.8483L216.437 40.0928C216.437 41.2099 216.557 42.7659 216.717 43.6037C207.66 45.5187 206.224 45.9177 205.346 46.4762ZM205.346 46.4762C205.027 45.3591 204.109 43.4441 203.351 42.6462C204.229 42.1276 205.147 41.17 205.147 39.3348V28.9618H210.373V42.0478C210.373 42.0478 205.346 44.8405 205.346 46.4762ZM231.159 36.7815L234.231 39.2151C231.398 40.7711 228.007 42.3669 225.374 43.3244L223.26 41.3695C225.773 40.2125 229.164 38.2576 231.159 36.7815ZM216.078 41.2897L217.993 38.497C222.98 39.7338 230.321 41.8882 234.151 43.3244L232.156 46.556C228.526 45.0799 221.225 42.726 216.078 41.2897Z" fill="white"/>
<path d="M167.136 8.61475L172.043 10.0909C169.33 16.195 164.902 22.0996 160.513 25.7302C159.676 24.7727 157.761 22.9374 156.604 22.0996C160.912 19.0276 164.902 13.9209 167.136 8.61475ZM166.977 14.0007H188.082V18.5489H164.742L166.977 14.0007ZM186.326 14.0007H191.193C191.193 14.0007 191.154 15.437 191.114 15.9955C190.755 28.6027 190.396 33.3503 189.278 34.8664C188.441 36.0633 187.523 36.4622 186.366 36.7016C185.249 36.8612 183.573 36.9011 181.738 36.8213C181.658 35.4648 181.14 33.5498 180.461 32.313C181.818 32.4327 183.055 32.4726 183.733 32.4327C184.291 32.4726 184.65 32.3529 185.01 31.8343C185.688 30.8768 186.047 26.7276 186.326 14.9183V14.0007ZM163.146 21.4214H167.894V38.3373C167.894 40.6114 168.532 41.0104 172.682 41.0104C174.637 41.0104 183.174 41.0104 185.448 41.0104C188.76 41.0104 189.318 40.2923 189.797 36.542C190.954 37.2203 192.989 37.9783 194.385 38.2177C193.547 43.843 191.912 45.4787 185.768 45.4787C183.932 45.4787 174.357 45.4787 172.682 45.4787C165.301 45.4787 163.146 44.0425 163.146 38.4171V21.4214ZM164.543 21.4214H180.142V34.2679H164.543V30.039H175.474V25.6105H164.543V21.4214Z" fill="white"/>
<path d="M141.931 12.3651L145.522 9.89153C147.716 11.7666 150.309 14.4397 151.506 16.3148L147.636 19.0277C146.599 17.1127 144.085 14.32 141.931 12.3651ZM115.799 20.1448H151.825V24.693H115.799V20.1448ZM115.041 31.4354C119.868 30.7173 127.449 29.4007 134.431 28.1241L134.79 32.4727C128.326 33.8292 121.384 35.2256 116.238 36.2629L115.041 31.4354ZM123.379 13.7216H128.207V40.6913C128.207 43.2846 127.688 44.6011 126.052 45.3592C124.456 46.1172 122.103 46.2768 118.831 46.2768C118.632 44.9203 117.834 42.7659 117.116 41.4095C119.39 41.5291 121.704 41.5291 122.422 41.4893C123.14 41.4893 123.379 41.2898 123.379 40.6115V13.7216ZM131.558 9.05371L134.79 13.1231C129.603 14.719 122.781 15.7962 116.996 16.4345C116.757 15.3174 116.158 13.5221 115.6 12.4449C121.225 11.6869 127.449 10.4501 131.558 9.05371ZM135.468 9.1335H140.495C140.215 25.2116 143.806 41.569 147.437 41.569C148.274 41.569 148.713 39.6141 148.953 34.8665C149.95 35.9836 151.586 37.1007 152.863 37.6193C152.105 44.6809 150.588 46.4364 146.958 46.4364C138.699 46.4364 135.588 27.0469 135.468 9.1335ZM146.32 26.0096L150.549 27.8049C146.399 35.2256 139.896 41.1701 132.675 45.0001C131.957 43.8032 130.64 42.2074 129.444 41.1302C136.266 38.0183 142.769 32.5924 146.32 26.0096Z" fill="white"/>
<path d="M88.8388 12.9637H107.989V30.877H88.8388V26.7677H103.321V17.073H88.8388V12.9637ZM89.2378 19.9056H104.678V23.8952H89.2378V19.9056ZM98.9724 29.2413C100.768 35.3853 104.678 39.9734 111.3 41.8086C110.223 42.7661 108.907 44.6412 108.268 45.9578C100.927 43.4044 97.0175 37.9386 94.7035 30.0791L98.9724 29.2413ZM106.593 31.1563L109.625 34.3081C107.55 35.9837 104.717 37.6993 102.643 38.7765L100.01 35.7843C102.005 34.7071 104.917 32.6724 106.593 31.1563ZM93.4668 9.49272L97.9351 8.41553C98.8128 10.0912 99.7703 12.4051 100.129 13.8813L95.4217 15.1181C95.1424 13.6419 94.3046 11.2482 93.4668 9.49272ZM86.2057 46.4764L85.687 42.3272L87.5222 40.8112L97.0175 38.0982C97.1372 39.4148 97.4564 41.25 97.7356 42.2873C88.7989 45.1199 87.243 45.7583 86.2057 46.4764ZM86.2057 46.4764C85.8067 45.479 84.4901 43.6837 83.7321 42.9656C84.5699 42.2474 85.6072 40.8511 85.6072 38.7366V12.9637H90.3948V41.3298C90.3948 41.3298 86.2057 44.6811 86.2057 46.4764ZM75.5933 12.9238L78.8249 10.0114C80.7798 11.4077 83.4528 13.5222 84.7295 14.9984L81.2984 18.23C80.1415 16.7139 77.628 14.4797 75.5933 12.9238ZM73.5586 23.4165L76.3912 20.145C78.6254 21.3419 81.6575 23.1771 83.2135 24.5735L80.1813 28.204C78.8249 26.8076 75.8327 24.733 73.5586 23.4165ZM74.4363 42.4469C76.1518 39.3749 78.5057 34.3879 80.301 29.7599L84.2109 32.5527C82.615 36.7817 80.6601 41.2899 78.785 45.1997L74.4363 42.4469Z" fill="white"/>
<path fill-rule="evenodd" clip-rule="evenodd" d="M28.5312 0.400061C29.1231 -0.133354 30.0216 -0.133354 30.6136 0.400061L52.3766 20.0121C52.3949 20.0279 52.4129 20.0441 52.4305 20.0607L58.6293 25.6468C59.2682 26.2226 59.32 27.208 58.745 27.8477C58.1699 28.4875 57.1858 28.5394 56.5469 27.9636L52.9194 24.6946V40.8312C52.9194 42.7886 52.0551 44.628 50.5807 45.9567C49.1117 47.2805 47.1514 48 45.1373 48H14.0087C11.9945 48 10.0342 47.2805 8.56523 45.9567C7.09085 44.628 6.22652 42.7886 6.22652 40.8312V24.6935L2.59782 27.9636C1.95889 28.5394 0.974781 28.4875 0.399742 27.8477C-0.175293 27.208 -0.123497 26.2226 0.515434 25.6468L28.5312 0.400061ZM9.33938 21.8883L29.5724 3.65511L49.8066 21.8894V40.8312C49.8066 41.8497 49.359 42.8643 48.4983 43.6399C47.6322 44.4205 46.4255 44.8831 45.1373 44.8831H37.0272C37.0414 44.8063 37.0527 44.7309 37.0622 44.6583C37.1421 44.0294 37.2312 43.4004 37.3204 42.7714L37.3204 42.7709C37.5449 41.2057 37.7724 39.5979 37.8769 37.9961C37.9261 37.2363 38.0122 37.2059 38.661 37.2029C40.1337 37.1937 41.5573 36.905 42.9347 36.6223L43.0516 36.598C44.5889 36.285 45.6373 35.3306 46.1692 33.7593C46.6726 32.2757 46.7899 30.7618 46.9035 29.2963L46.9041 29.2884C46.9134 29.1731 46.9222 29.0602 46.9308 28.9491C46.9506 28.6944 46.9697 28.4489 46.9932 28.2034C47.1467 26.5646 45.7153 26.3349 45.2397 26.2586L45.2376 26.2582C44.4261 26.1309 43.6168 25.9929 42.8078 25.8549C42.6513 25.8282 42.4947 25.8016 42.3382 25.775L42.2983 25.7689L42.2971 25.7687C41.3136 25.6016 40.3301 25.4345 39.3435 25.2765C38.4181 25.1276 37.9876 24.8784 37.7017 24.3222C37.4557 23.8419 37.136 23.4286 36.8254 23.0274L36.7991 22.9934C36.6672 22.8234 36.5408 22.6606 36.4226 22.4925C35.0483 20.5503 33.1697 19.5838 30.833 19.6385C29.9598 19.6568 29.0497 19.6537 28.2472 19.6507H28.1304H26.8575C24.0042 19.6598 22.3746 20.7935 21.4092 23.4347C21.1386 24.1763 20.9203 24.9361 20.6928 25.7385C20.0779 25.0151 19.506 24.3434 18.931 23.6748C18.3899 23.0456 17.8396 22.7843 17.2984 22.8967C16.7511 23.0122 16.3699 23.4529 16.1301 24.2462C14.2463 30.5057 12.2922 37.1769 10.9366 43.8791C10.8366 43.8031 10.7402 43.7233 10.6476 43.6399C9.7869 42.8643 9.33938 41.8496 9.33938 40.8312V21.8883ZM13.5705 44.8652C13.5779 44.8106 13.5843 44.7576 13.5904 44.707C13.5925 44.6908 13.5945 44.675 13.5965 44.6595C13.6061 44.5848 13.6146 44.5182 13.6273 44.4578C14.8295 38.5371 16.4959 32.7715 18.1255 27.1882C19.9365 29.7778 22.7866 30.3157 25.3878 30.4799C25.8828 30.5102 26.1226 30.8993 26.5039 31.5801L26.7283 31.9782L26.7287 31.9789C27.4112 33.1853 28.1829 34.5496 29.8921 35.0966C29.9198 35.1057 29.9413 35.1148 29.9536 35.1209C29.9567 35.1574 29.9567 35.2455 29.9167 35.4157C29.6123 36.7257 28.8775 37.3791 27.5308 37.5311C26.2425 37.677 25.1141 37.7621 24.0811 37.7925C22.885 37.8259 22.2609 38.3973 22.1779 39.5401C22.101 40.5856 21.9903 41.6433 21.8796 42.6676C21.8089 43.3302 21.7382 43.9958 21.6767 44.6583L21.6613 44.7982C21.6582 44.8255 21.655 44.8539 21.6518 44.8831H14.0087C13.8614 44.8831 13.7152 44.8771 13.5705 44.8652ZM24.4463 44.8831C24.4474 44.876 24.4486 44.8689 24.45 44.862V44.8255L24.4601 44.7368C24.6076 43.4363 24.7597 42.0962 24.8559 40.7589C24.8682 40.6282 24.8805 40.5613 24.8897 40.5279C24.9235 40.5218 24.9881 40.5127 25.1111 40.5127H25.148C25.6717 40.5127 26.1818 40.4535 26.6783 40.3958C26.7094 40.3922 26.7404 40.3886 26.7714 40.385C27.1526 40.3395 27.54 40.2939 27.909 40.2756C29.8614 40.1814 31.3065 39.1602 32.2042 37.2333C33.4464 34.5678 33.1543 33.7046 30.5655 32.3642C29.8921 32.0178 29.5693 31.3977 29.2956 30.7959C28.3548 28.717 26.6884 27.6229 24.1979 27.4496C24.1756 27.4479 24.152 27.4461 24.1273 27.4442C23.8463 27.4229 23.4274 27.391 23.1956 27.3463C23.2325 27.1001 23.3493 26.6533 23.4508 26.2795L23.5092 26.0637C23.5953 25.7385 23.6783 25.4315 23.7674 25.1276C24.4439 22.8207 24.985 22.4135 27.374 22.4074H27.6815C28.1304 22.4043 28.5424 22.4013 28.9205 22.3983H29.0097L29.03 22.3981C31.0242 22.383 32.0285 22.3754 32.7915 22.8055C33.571 23.2467 34.2502 24.2107 35.5967 26.1215L35.6202 26.1549L35.8292 26.4497C36.4073 27.2703 37.0991 27.6958 38.0768 27.8265C39.073 27.9633 40.0876 28.1456 41.0684 28.325C41.8709 28.4739 42.6887 28.6198 43.5005 28.7444C44.1769 28.8477 44.1769 28.8599 44.1123 29.4222L44.1085 29.4563C43.8557 31.699 43.7164 32.9354 43.2453 33.4888C42.8025 34.0085 41.8709 34.1088 40.0169 34.3064C39.7125 34.3368 39.3866 34.3732 39.0361 34.4128L38.7225 34.4492C35.697 34.7866 35.4265 35.0662 35.1006 38.2058C34.9277 39.8606 34.689 41.5213 34.4583 43.1267L34.4487 43.1934L34.3042 44.2085L34.3033 44.2148C34.2828 44.3623 34.2482 44.6105 34.2647 44.8831H24.4463Z" fill="white"/>
</svg>
